<?xml version="1.0" ?><svg enable-background="new 0 0 32 32" version="1.1" viewBox="0 0 32 32" xml:space="preserve" xmlns="http://www.w3.org/2000/svg" xmlns:xlink="http://www.w3.org/1999/xlink"><g id="style_2_copy_3"><g><g><g><path d="M16,0C7.178,0,0,7.178,0,16c0,8.822,7.178,16,16,16s16-7.178,16-16C32,7.178,24.822,0,16,0L16,0z" fill="#C1C1C1"/></g></g><g><path d="M16,31.14C7.652,31.14,0.86,24.348,0.86,16C0.86,7.652,7.652,0.86,16,0.86S31.14,7.652,31.14,16     C31.14,24.348,24.348,31.14,16,31.14z" fill="#FFFFFF"/><path d="M16,31.14C7.652,31.14,0.86,24.348,0.86,16C0.86,7.652,7.652,0.86,16,0.86S31.14,7.652,31.14,16     C31.14,24.348,24.348,31.14,16,31.14z" fill="#FFFFFF"/></g><path d="M16,30.057C8.249,30.057,1.943,23.751,1.943,16C1.943,8.249,8.249,1.943,16,1.943S30.057,8.249,30.057,16    C30.057,23.751,23.751,30.057,16,30.057z" fill="#282828"/><g><defs><path d="M30.057,16c0,7.751-6.306,14.057-14.057,14.057C8.249,30.057,1.943,23.751,1.943,16      S8.249,1.943,16,1.943C23.751,1.943,30.057,8.249,30.057,16z" id="SVGID_31_"/></defs><clipPath id="SVGID_2_"><use overflow="visible" xlink:href="#SVGID_31_"/></clipPath><g clip-path="url(#SVGID_2_)"><g><rect height="26.197" transform="matrix(0.7071 -0.7071 0.7071 0.7071 -15.4973 12.084)" width="0.5" x="6.588" y="11.65"/></g><g><rect height="26.197" transform="matrix(0.7071 -0.7071 0.7071 0.7071 -14.1184 12.6552)" width="0.5" x="7.967" y="10.271"/></g><g><rect height="31.975" transform="matrix(0.7071 -0.7071 0.7071 0.7071 -12.8257 13.4356)" width="0.5" x="9.555" y="6.212"/></g><g><rect height="31.975" transform="matrix(0.7071 -0.7071 0.7071 0.7071 -11.4468 14.0068)" width="0.5" x="10.934" y="4.833"/></g><g><rect height="35.497" transform="matrix(0.7071 -0.7071 0.7071 0.7071 -10.1625 14.8064)" width="0.5" x="12.541" y="1.922"/></g><g><rect height="35.497" transform="matrix(0.7071 -0.7071 0.7071 0.7071 -8.7832 15.377)" width="0.5" x="13.92" y="0.542"/></g><g><rect height="35.497" transform="matrix(0.7071 -0.7071 0.7071 0.7071 -7.4042 15.9481)" width="0.5" x="15.3" y="-0.837"/></g><g><rect height="35.497" transform="matrix(0.7071 -0.7071 0.7071 0.7071 -6.0253 16.5193)" width="0.5" x="16.678" y="-2.215"/></g><g><rect height="35.496" transform="matrix(0.7071 -0.7071 0.7071 0.7071 -4.6461 17.0907)" width="0.5" x="18.057" y="-3.594"/></g><g><rect height="35.497" transform="matrix(0.7071 -0.7071 0.7071 0.7071 -3.2669 17.6627)" width="0.5" x="19.437" y="-4.974"/></g><g><rect height="31.232" transform="matrix(0.7071 -0.7071 0.7071 0.7071 -2.1974 18.981)" width="0.5" x="21.563" y="-3.473"/></g><g><rect height="31.233" transform="matrix(0.7071 -0.7071 0.7071 0.7071 -0.8183 19.5514)" width="0.5" x="22.942" y="-4.853"/></g><g><rect height="26.143" transform="matrix(0.7071 -0.7071 0.7071 0.7071 0.8854 19.3404)" width="0.5" x="23.538" y="-4.47"/></g><g><rect height="26.143" transform="matrix(0.7071 -0.7071 0.7071 0.7071 2.2644 19.9115)" width="0.5" x="24.917" y="-5.849"/></g></g></g></g></g><g id="Official_copy"><linearGradient gradientUnits="userSpaceOnUse" id="Cat_1_" x1="15.4378" x2="15.4378" y1="24.4933" y2="7.5067"><stop offset="0" style="stop-color:#FF2D76"/><stop offset="1" style="stop-color:#FB0000"/></linearGradient><path d="M18.52,24.493h-2.263h-2.265c0,0,0.006-1.344,0-2.265   c-3.099,0.667-3.964-1.699-3.964-1.699c-0.566-1.132-1.132-1.699-1.132-1.699c-1.132-0.673,0-0.566,0-0.566   c1.132,0,1.699,1.132,1.699,1.132c0.994,1.687,2.762,1.416,3.397,1.132c0-0.566,0.248-1.422,0.566-1.699   c-2.473-0.279-4.532-1.699-4.532-4.53s0.568-3.397,1.135-3.964c-0.114-0.279-0.588-1.311,0.018-2.831c0,0,1.113,0,2.245,1.699   c0.561-0.561,2.265-0.566,2.832-0.566c0.565,0,2.269,0.005,2.83,0.566c1.132-1.699,2.248-1.699,2.248-1.699   c0.605,1.52,0.132,2.552,0.017,2.831c0.566,0.566,1.132,1.132,1.132,3.964s-2.056,4.251-4.53,4.53   c0.319,0.276,0.566,1.251,0.566,1.699L18.52,24.493L18.52,24.493z" fill="url(#Cat_1_)" id="Cat_7_"/></g></svg>